<mxfile host="app.diagrams.net" agent="Mozilla/5.0 (Windows NT 10.0; Win64; x64) AppleWebKit/537.36 (KHTML, like Gecko) Chrome/135.0.0.0 Safari/537.36" version="26.2.14">
  <diagram name="Page-1" id="BvF9_XJA-oCBez33ON-c">
    <mxGraphModel dx="912" dy="1014" grid="0" gridSize="10" guides="1" tooltips="1" connect="1" arrows="1" fold="1" page="0" pageScale="1" pageWidth="850" pageHeight="1100" math="0" shadow="0">
      <root>
        <mxCell id="0" />
        <mxCell id="1" parent="0" />
        <mxCell id="DtkYA5QBtifV6YRvQLR5-1" value="USER (Browser)" style="rounded=1;whiteSpace=wrap;html=1;" vertex="1" parent="1">
          <mxGeometry x="-18" y="-333" width="120" height="44" as="geometry" />
        </mxCell>
        <mxCell id="DtkYA5QBtifV6YRvQLR5-8" style="edgeStyle=none;curved=1;rounded=0;orthogonalLoop=1;jettySize=auto;html=1;fontSize=12;startSize=8;endSize=8;" edge="1" parent="1">
          <mxGeometry relative="1" as="geometry">
            <mxPoint x="66" y="-334" as="sourcePoint" />
            <mxPoint x="66" y="-324" as="targetPoint" />
          </mxGeometry>
        </mxCell>
        <mxCell id="DtkYA5QBtifV6YRvQLR5-10" value="&lt;div&gt;&amp;nbsp;Frontend&amp;nbsp;&lt;/div&gt;&lt;div&gt;(HTML/CSS/JS, Bootstrap))&lt;/div&gt;" style="html=1;whiteSpace=wrap;container=1;recursiveResize=0;collapsible=0;" vertex="1" parent="1">
          <mxGeometry x="-86" y="-213" width="276" height="94" as="geometry" />
        </mxCell>
        <mxCell id="DtkYA5QBtifV6YRvQLR5-11" value="" style="triangle;html=1;whiteSpace=wrap;" vertex="1" parent="DtkYA5QBtifV6YRvQLR5-10">
          <mxGeometry x="20" y="20" width="20" height="30" as="geometry" />
        </mxCell>
        <mxCell id="DtkYA5QBtifV6YRvQLR5-12" value="Django Backend&amp;nbsp;&lt;div&gt;(Views, Models, Templates, URLs)&lt;/div&gt;" style="html=1;whiteSpace=wrap;container=1;recursiveResize=0;collapsible=0;" vertex="1" parent="1">
          <mxGeometry x="-90" y="-52" width="278" height="97" as="geometry" />
        </mxCell>
        <mxCell id="DtkYA5QBtifV6YRvQLR5-13" value="" style="triangle;html=1;whiteSpace=wrap;" vertex="1" parent="DtkYA5QBtifV6YRvQLR5-12">
          <mxGeometry x="20" y="20" width="20" height="30" as="geometry" />
        </mxCell>
        <mxCell id="DtkYA5QBtifV6YRvQLR5-16" value="" style="shape=singleArrow;direction=south;whiteSpace=wrap;html=1;" vertex="1" parent="1">
          <mxGeometry x="12" y="67" width="60" height="28" as="geometry" />
        </mxCell>
        <mxCell id="DtkYA5QBtifV6YRvQLR5-18" style="edgeStyle=none;curved=1;rounded=0;orthogonalLoop=1;jettySize=auto;html=1;exitX=0.25;exitY=1;exitDx=0;exitDy=0;fontSize=12;startSize=8;endSize=8;" edge="1" parent="1" source="DtkYA5QBtifV6YRvQLR5-10" target="DtkYA5QBtifV6YRvQLR5-10">
          <mxGeometry relative="1" as="geometry" />
        </mxCell>
        <mxCell id="DtkYA5QBtifV6YRvQLR5-19" style="edgeStyle=none;curved=1;rounded=0;orthogonalLoop=1;jettySize=auto;html=1;exitX=0.5;exitY=1;exitDx=0;exitDy=0;fontSize=12;startSize=8;endSize=8;" edge="1" parent="1" source="DtkYA5QBtifV6YRvQLR5-10" target="DtkYA5QBtifV6YRvQLR5-10">
          <mxGeometry relative="1" as="geometry" />
        </mxCell>
        <mxCell id="DtkYA5QBtifV6YRvQLR5-20" value="" style="shape=singleArrow;direction=south;whiteSpace=wrap;html=1;" vertex="1" parent="1">
          <mxGeometry x="12" y="-100" width="60" height="37" as="geometry" />
        </mxCell>
        <mxCell id="DtkYA5QBtifV6YRvQLR5-21" value="" style="shape=singleArrow;direction=south;whiteSpace=wrap;html=1;" vertex="1" parent="1">
          <mxGeometry x="19" y="-275" width="60" height="48" as="geometry" />
        </mxCell>
        <mxCell id="DtkYA5QBtifV6YRvQLR5-22" value="MySQL&lt;div&gt;Database&lt;/div&gt;" style="shape=datastore;whiteSpace=wrap;html=1;" vertex="1" parent="1">
          <mxGeometry x="-16" y="260" width="118" height="88" as="geometry" />
        </mxCell>
        <mxCell id="DtkYA5QBtifV6YRvQLR5-23" value="Functional Modules&lt;div&gt;&lt;br&gt;&lt;div&gt;User Authentication, Cart ,&lt;/div&gt;&lt;div&gt;Product List ,&lt;/div&gt;&lt;div&gt;&lt;span style=&quot;background-color: transparent; color: light-dark(rgb(0, 0, 0), rgb(255, 255, 255));&quot;&gt;Admin Dashboard&lt;/span&gt;&lt;/div&gt;&lt;/div&gt;" style="html=1;whiteSpace=wrap;container=1;recursiveResize=0;collapsible=0;" vertex="1" parent="1">
          <mxGeometry x="-82" y="107" width="262" height="83" as="geometry" />
        </mxCell>
        <mxCell id="DtkYA5QBtifV6YRvQLR5-24" value="" style="triangle;html=1;whiteSpace=wrap;" vertex="1" parent="DtkYA5QBtifV6YRvQLR5-23">
          <mxGeometry x="20" y="20" width="20" height="30" as="geometry" />
        </mxCell>
        <mxCell id="DtkYA5QBtifV6YRvQLR5-25" value="" style="shape=singleArrow;direction=south;whiteSpace=wrap;html=1;" vertex="1" parent="1">
          <mxGeometry x="9" y="204" width="60" height="47" as="geometry" />
        </mxCell>
      </root>
    </mxGraphModel>
  </diagram>
</mxfile>
